<?xml version="1.0" encoding="UTF-8"?>
<svg id="Layer_1" data-name="Layer 1" xmlns="http://www.w3.org/2000/svg" viewBox="0 0 958.89 149.89">
  <defs>
    <style>
      .cls-1 {
        fill: #33c;
      }
    </style>
  </defs>
  <g>
    <path class="cls-1" d="M337.84,106.22l-18.4-56.63c-.52-1.61-2.02-2.7-3.71-2.7h-21.02c-1.7,0-3.2,1.09-3.72,2.71l-18.3,56.82-16.88-56.74c-.49-1.66-2.02-2.79-3.74-2.79h-23.61c-2.68,0-4.57,2.64-3.69,5.18l32.9,95.19c.54,1.57,2.03,2.63,3.69,2.63h21.12c1.67,0,3.16-1.07,3.7-2.65l19.2-56.59,18.86,56.57c.53,1.59,2.02,2.67,3.7,2.67h21.11c1.66,0,3.14-1.05,3.69-2.62l33.1-95.19c.88-2.54-1-5.19-3.69-5.19h-23.61c-1.72,0-3.24,1.13-3.74,2.78l-16.98,56.55Z"/>
    <path class="cls-1" d="M958.13,143.67l-35.35-48.15,32.72-42.35c1.98-2.57,.15-6.29-3.09-6.29h-26.28c-1.26,0-2.44,.61-3.17,1.63l-32.1,44.72V50.79c0-2.16-1.75-3.9-3.9-3.9h-24.83c-2.16,0-3.9,1.75-3.9,3.9v95.19c0,2.16,1.75,3.9,3.9,3.9h24.83c2.16,0,3.9-1.75,3.9-3.9v-46.03l32.33,48.2c.73,1.08,1.94,1.73,3.24,1.73h28.56c3.2,0,5.04-3.64,3.15-6.22Z"/>
    <path class="cls-1" d="M820.35,57.37c-2.73-2.6-5.85-4.81-9.45-6.54-5.47-2.63-11.6-3.94-18.38-3.94-9.28,0-17.55,2.25-24.82,6.75-7.27,4.5-13.01,10.73-17.24,18.69-4.22,7.96-6.33,17-6.33,27.1s2.11,19.07,6.33,26.89c4.22,7.82,19.71,23.57,42.05,23.57,17.48,0,25.16-5.73,27.83-8.26v4.43c0,2.11,1.71,3.83,3.83,3.83h23.71c2.11,0,3.83-1.71,3.83-3.83V50.71c0-2.11-1.71-3.83-3.83-3.83h-23.71c-2.11,0-3.83,1.71-3.83,3.83v6.66Zm-21.18,65.72c-4.29,0-8.13-1-11.52-3.01-3.4-2.01-6.09-4.81-8.1-8.41-2.01-3.6-3.01-7.68-3.01-12.25s1-8.65,3.01-12.25c2.01-3.6,4.71-6.4,8.1-8.41,3.39-2.01,7.23-3.01,11.52-3.01s8.38,1.01,11.84,3.01c3.46,2.01,6.09,4.78,7.89,8.31,1.8,3.53,2.7,7.58,2.7,12.15,0,7.06-2.04,12.81-6.12,17.24-4.09,4.43-9.52,6.64-16.3,6.64Z"/>
    <path class="cls-1" d="M455.77,57.37c-2.73-2.6-5.85-4.81-9.45-6.54-5.47-2.63-11.6-3.94-18.38-3.94-9.28,0-17.55,2.25-24.82,6.75-7.27,4.5-13.01,10.73-17.24,18.69-4.22,7.96-6.33,17-6.33,27.1s2.11,19.07,6.33,26.89c4.22,7.82,19.71,23.57,42.05,23.57,17.48,0,25.16-5.73,27.83-8.26v4.43c0,2.11,1.71,3.83,3.83,3.83h23.71c2.11,0,3.83-1.71,3.83-3.83V50.71c0-2.11-1.71-3.83-3.83-3.83h-23.71c-2.11,0-3.83,1.71-3.83,3.83v6.66Zm-21.18,65.72c-4.29,0-8.13-1-11.52-3.01-3.4-2.01-6.09-4.81-8.1-8.41-2.01-3.6-3.01-7.68-3.01-12.25s1-8.65,3.01-12.25c2.01-3.6,4.71-6.4,8.1-8.41,3.39-2.01,7.23-3.01,11.52-3.01s8.38,1.01,11.84,3.01c3.46,2.01,6.09,4.78,7.89,8.31,1.8,3.53,2.7,7.58,2.7,12.15,0,7.06-2.04,12.81-6.12,17.24-4.09,4.43-9.52,6.64-16.3,6.64Z"/>
    <path class="cls-1" d="M189.04,57.38c-2.73-2.6-5.85-4.81-9.45-6.54-5.47-2.63-11.6-3.94-18.38-3.94-9.28,0-17.55,2.25-24.82,6.75-7.27,4.5-13.01,10.73-17.24,18.69-4.22,7.96-6.33,17-6.33,27.1s2.11,19.07,6.33,26.89c4.22,7.82,19.71,23.57,42.05,23.57,17.48,0,25.16-5.73,27.83-8.26v4.43c0,2.11,1.71,3.83,3.83,3.83h23.71c2.11,0,3.83-1.71,3.83-3.83V50.71c0-2.11-1.71-3.83-3.83-3.83h-23.71c-2.11,0-3.83,1.71-3.83,3.83v6.66Zm-21.18,65.72c-4.29,0-8.13-1-11.52-3.01-3.4-2.01-6.09-4.81-8.1-8.41-2.01-3.6-3.01-7.68-3.01-12.25s1-8.65,3.01-12.25c2.01-3.6,4.71-6.4,8.1-8.41,3.39-2.01,7.23-3.01,11.52-3.01s8.38,1.01,11.84,3.01c3.46,2.01,6.09,4.78,7.89,8.31,1.8,3.53,2.7,7.58,2.7,12.15,0,7.06-2.04,12.81-6.12,17.24-4.09,4.43-9.52,6.64-16.3,6.64Z"/>
    <path class="cls-1" d="M645.03,53.17c-7.43-4.19-16.09-6.29-25.95-6.29s-18.99,2.23-26.97,6.69c-7.98,4.46-14.26,10.58-18.86,18.35-4.6,7.77-6.89,16.53-6.89,26.26s2.36,18.93,7.1,26.76c4.73,7.84,11.22,13.96,19.47,18.35,8.24,4.39,17.71,6.59,28.39,6.59,8.38,0,16.02-1.39,22.91-4.16,5.73-2.3,10.75-5.65,15.08-10.05,1.47-1.49,1.5-3.88,.01-5.35l-12.04-11.9c-1.4-1.38-3.63-1.45-5.08-.12-2.38,2.16-5.01,3.87-7.9,5.12-3.92,1.69-8.25,2.53-12.98,2.53-5.27,0-9.83-1.12-13.69-3.35-3.85-2.23-6.83-5.44-8.92-9.63-.65-1.3-1.16-2.69-1.61-4.12l67.52-.32c1.77,0,3.29-1.28,3.66-3.02,.27-1.27,.46-2.47,.58-3.58,.2-1.96,.31-3.88,.31-5.78,0-9.6-2.16-18.11-6.49-25.55-4.33-7.43-10.21-13.25-17.64-17.44Zm-38.22,20.88c3.58-2.3,7.81-3.45,12.67-3.45,4.46,0,8.28,1.01,11.46,3.04,3.17,2.03,5.58,4.9,7.2,8.62,.64,1.46,1.13,3.11,1.53,4.85l-42.61,.24c.4-1.32,.87-2.59,1.44-3.77,1.96-4.06,4.73-7.23,8.31-9.53Z"/>
    <path class="cls-1" d="M744.14,49.07c-3.67-1.45-7.93-2.18-12.77-2.18-10.94,0-19.56,3.25-25.85,9.76-.04,.04-.07,.08-.1,.12v-3.98c0-2.11-1.71-3.83-3.83-3.83h-24.33c-2.11,0-3.83,1.71-3.83,3.83v93.27c0,2.11,1.71,3.83,3.83,3.83h24.33c2.11,0,3.83-1.71,3.83-3.83v-51.41c0-6.51,1.56-11.39,4.67-14.64,3.11-3.25,7.37-4.88,12.77-4.88,2.63,0,4.98,.42,7.06,1.25,.88,.35,1.69,.76,2.43,1.21,1.63,1.01,3.75,.58,4.94-.92l14.32-18.26c1.29-1.64,1.05-4.05-.58-5.35-2.08-1.67-4.38-3-6.88-3.99Z"/>
    <path class="cls-1" d="M491.4,50.85v19.89c0,2.19,1.77,3.96,3.96,3.96h14.76c2.19,0,3.96,1.77,3.96,3.96v67.26c0,2.19,1.77,3.96,3.96,3.96h24.13c2.19,0,3.96-1.77,3.96-3.96V78.67c0-2.19,1.77-3.96,3.96-3.96h14.97c2.19,0,3.96-1.77,3.96-3.96v-19.89c0-2.19-1.77-3.96-3.96-3.96h-69.71c-2.19,0-3.96,1.77-3.96,3.96Z"/>
  </g>
  <g>
    <path class="cls-1" d="M39.53,94.6h36.56c10.57,0,19.13-8.56,19.13-19.13h0c0-10.57-8.56-19.13-19.13-19.13H1.27s0,0,0,0c0,21.13,17.13,38.26,38.26,38.26Z"/>
    <path class="cls-1" d="M90.58,38.26H38.26c-10.57,0-19.13-8.56-19.13-19.13h0C19.13,8.56,27.69,0,38.26,0h90.58s0,0,0,0c0,21.13-17.13,38.26-38.26,38.26Z"/>
  </g>
  <path class="cls-1" d="M19.13,111.63c-10.57,0-19.13,8.56-19.13,19.13H0c0,10.57,8.56,19.13,19.13,19.13s19.13-8.56,19.13-19.13h0c0-10.57-8.56-19.13-19.13-19.13Zm2.66,21.09l1.6,4.54c.17,.49-.17,.97-.66,.97h-7.11c-.49,0-.83-.49-.69-.97l1.6-4.51c.11-.29,.03-.63-.23-.8-1.23-.91-2-2.34-1.97-3.97,.06-2.48,2.06-4.54,4.54-4.68,2.77-.14,5.06,2.06,5.06,4.8,0,1.54-.74,2.91-1.89,3.8-.26,.2-.37,.51-.26,.83Z"/>
</svg>